# xmcd
#
# Track frame offsets:
#	150
#	3602
#	18814
#	34704
#	49228
#	67855
#	85716
#
# Disc length: 1258 seconds
# Revision: 0
# Processed by: cddbd v1.5.2PL0 Copyright (c) Steve Scherf et al.
# Submitted via: dBpowerAMP V12.0
#
DISCID=4704e807
DTITLE=Brian Stitt - Extreme Weather Events
DYEAR=2014
DGENRE=Country
TTITLE0=Flop Eared Mule
TTITLE1=She Told Me She Loved Me
TTITLE2=I'm Still Smoking
TTITLE3=Extreme Weather Events
TTITLE4=Two Night Stand
TTITLE5=Don't Ever Lose Hold of That Feeling
TTITLE6=How About You
EXTD=
EXTT0=
EXTT1=
EXTT2=
EXTT3=
EXTT4=
EXTT5=
EXTT6=
PLAYORDER=
